<?xml version="1.0" encoding="UTF-8" standalone="no"?>
<!-- Created with Inkscape (http://www.inkscape.org/) -->

<svg
   xmlns:dc="http://purl.org/dc/elements/1.1/"
   xmlns:cc="http://creativecommons.org/ns#"
   xmlns:rdf="http://www.w3.org/1999/02/22-rdf-syntax-ns#"
   xmlns:svg="http://www.w3.org/2000/svg"
   xmlns="http://www.w3.org/2000/svg"
   xmlns:sodipodi="http://sodipodi.sourceforge.net/DTD/sodipodi-0.dtd"
   xmlns:inkscape="http://www.inkscape.org/namespaces/inkscape"
   version="1.1"
   id="svg2"
   xml:space="preserve"
   width="201.5136"
   height="106.95876"
   viewBox="0 0 100.7568 53.479378"
   sodipodi:docname="logo.svg"
   inkscape:version="0.92.3 (2405546, 2018-03-11)"><metadata
     id="metadata8"><rdf:RDF><cc:Work
         rdf:about=""><dc:format>image/svg+xml</dc:format><dc:type
           rdf:resource="http://purl.org/dc/dcmitype/StillImage" /><dc:title></dc:title></cc:Work></rdf:RDF></metadata><defs
     id="defs6"><clipPath
       clipPathUnits="userSpaceOnUse"
       id="clipPath22"><path
         d="M 0,612.288 H 858.897 V 0 H 0 Z"
         id="path20"
         inkscape:connector-curvature="0" /></clipPath><clipPath
       clipPathUnits="userSpaceOnUse"
       id="clipPath60"><path
         d="m 413.456,314.087 c -0.055,-6.93 5.514,-12.592 12.442,-12.645 v 0 c 6.934,-0.058 12.593,5.513 12.649,12.441 v 0 c 0.055,6.931 -5.514,12.595 -12.443,12.649 v 0 c -0.035,0 -0.07,0 -0.105,0 v 0 c -6.883,0 -12.486,-5.549 -12.543,-12.445"
         id="path58"
         inkscape:connector-curvature="0" /></clipPath><clipPath
       clipPathUnits="userSpaceOnUse"
       id="clipPath136"><path
         d="m 413.103,315.268 h 8.982 v -10.496 h -8.982 z"
         id="path134"
         inkscape:connector-curvature="0" /></clipPath><clipPath
       clipPathUnits="userSpaceOnUse"
       id="clipPath180"><path
         d="M 0,612.288 H 858.897 V 0 H 0 Z"
         id="path178"
         inkscape:connector-curvature="0" /></clipPath></defs><sodipodi:namedview
     pagecolor="#ffffff"
     bordercolor="#666666"
     borderopacity="1"
     objecttolerance="10"
     gridtolerance="10"
     guidetolerance="10"
     inkscape:pageopacity="0"
     inkscape:pageshadow="2"
     inkscape:window-width="2560"
     inkscape:window-height="1377"
     id="namedview4"
     showgrid="false"
     inkscape:zoom="0.28907966"
     inkscape:cx="-68.102792"
     inkscape:cy="226.11308"
     inkscape:window-x="0"
     inkscape:window-y="30"
     inkscape:window-maximized="1"
     inkscape:current-layer="g10"
     fit-margin-top="0"
     fit-margin-left="0"
     fit-margin-right="0"
     fit-margin-bottom="0"
     scale-x="0.5" /><g
     id="g10"
     inkscape:groupmode="layer"
     inkscape:label="퓨처로고"
     transform="matrix(1.3333333,0,0,-1.3333333,-519.62692,435.5583)"><g
       id="g12"
       transform="translate(389.7202,296.6318)"><path
         d="M 0,0 H 6.748 V -1.818 H 2.11 V -4.092 H 6.13 V -5.773 H 2.11 V -9.838 H 0 Z"
         style="fill:#0075c2;fill-opacity:1;fill-rule:nonzero;stroke:none"
         id="path14"
         inkscape:connector-curvature="0" /></g><g
       id="g16"><g
         id="g18"
         clip-path="url(#clipPath22)"><g
           id="g24"
           transform="translate(405.3042,290.5146)"><path
             d="m 0,0 c 0,-2.66 -1.533,-3.955 -4.1,-3.955 -2.581,0 -4.087,1.281 -4.087,3.955 v 6.117 h 2.11 V 0 c 0,-1.075 0.269,-2.137 1.977,-2.137 1.505,0 1.989,0.676 1.989,2.137 V 6.117 H 0 Z"
             style="fill:#0075c2;fill-opacity:1;fill-rule:nonzero;stroke:none"
             id="path26"
             inkscape:connector-curvature="0" /></g><g
           id="g28"
           transform="translate(408.7095,294.8135)"><path
             d="M 0,0 H -2.877 V 1.818 H 4.987 V 0 H 2.11 V -8.02 H 0 Z"
             style="fill:#0075c2;fill-opacity:1;fill-rule:nonzero;stroke:none"
             id="path30"
             inkscape:connector-curvature="0" /></g><g
           id="g32"
           transform="translate(422.4116,290.5146)"><path
             d="m 0,0 c 0,-2.66 -1.533,-3.955 -4.1,-3.955 -2.581,0 -4.087,1.281 -4.087,3.955 v 6.117 h 2.11 V 0 c 0,-1.075 0.269,-2.137 1.977,-2.137 1.505,0 1.989,0.676 1.989,2.137 V 6.117 H 0 Z"
             style="fill:#0075c2;fill-opacity:1;fill-rule:nonzero;stroke:none"
             id="path34"
             inkscape:connector-curvature="0" /></g><g
           id="g36"
           transform="translate(425.8032,292.1816)"><path
             d="m 0,0 h 2.312 c 0.941,0 1.452,0.413 1.452,1.405 0,0.951 -0.511,1.364 -1.452,1.364 H 0 Z m -2.11,4.45 h 5.175 c 1.721,0 2.81,-1.226 2.81,-2.715 0,-1.156 -0.458,-2.025 -1.52,-2.465 V -0.759 C 5.39,-1.034 5.687,-2.067 5.753,-3.06 5.794,-3.679 5.781,-4.837 6.157,-5.388 H 4.046 c -0.255,0.62 -0.228,1.571 -0.336,2.356 -0.147,1.034 -0.538,1.488 -1.6,1.488 H 0 v -3.844 h -2.11 z"
             style="fill:#0075c2;fill-opacity:1;fill-rule:nonzero;stroke:none"
             id="path38"
             inkscape:connector-curvature="0" /></g><g
           id="g40"
           transform="translate(432.8652,296.6318)"><path
             d="M 0,0 H 7.178 V -1.818 H 2.11 v -2.109 h 4.652 v -1.68 H 2.11 V -8.02 H 7.286 V -9.838 H 0 Z"
             style="fill:#0075c2;fill-opacity:1;fill-rule:nonzero;stroke:none"
             id="path42"
             inkscape:connector-curvature="0" /></g><path
           d="m 445.318,296.632 h 2.111 v -9.838 h -2.111 z"
           style="fill:#e60013;fill-opacity:1;fill-rule:nonzero;stroke:none"
           id="path44"
           inkscape:connector-curvature="0" /><g
           id="g46"
           transform="translate(455.1475,293.3252)"><path
             d="m 0,0 c -0.135,0.979 -1.049,1.723 -2.098,1.723 -1.895,0 -2.607,-1.655 -2.607,-3.377 0,-1.639 0.712,-3.293 2.607,-3.293 1.291,0 2.017,0.91 2.178,2.205 h 2.044 c -0.216,-2.453 -1.869,-4.024 -4.222,-4.024 -2.97,0 -4.717,2.274 -4.717,5.112 0,2.922 1.747,5.195 4.717,5.195 2.112,0 3.886,-1.268 4.141,-3.541 z"
             style="fill:#f6ab00;fill-opacity:1;fill-rule:nonzero;stroke:none"
             id="path48"
             inkscape:connector-curvature="0" /></g><g
           id="g50"
           transform="translate(460.3008,294.8135)"><path
             d="M 0,0 H -2.877 V 1.818 H 4.987 V 0 H 2.11 V -8.02 H 0 Z"
             style="fill:#6fba2c;fill-opacity:1;fill-rule:nonzero;stroke:none"
             id="path52"
             inkscape:connector-curvature="0" /></g></g></g><g
       id="g54"><g
         id="g56"
         clip-path="url(#clipPath60)"><g
           id="g62"
           transform="translate(426.251,308.0054)"><path
             d="m 0,0 -0.014,-1.898 c -0.743,0.005 -1.343,-0.584 -1.349,-1.319 -0.007,-0.739 0.587,-1.338 1.328,-1.344 l -0.018,-2.092 c -3.484,0.028 -6.65,1.361 -9.021,3.528 l -0.065,0.061 1.511,1.476 -0.149,0.182 c -0.139,0.212 -0.22,0.469 -0.22,0.744 0.007,0.733 0.608,1.326 1.351,1.32 0.277,-0.002 0.534,-0.089 0.746,-0.232 l 0.177,-0.152 1.369,1.34 0.065,-0.06 C -3.127,0.594 -1.633,0.013 0,0 Z"
             style="fill:none;stroke:#a9ce35;stroke-width:0.27399999;stroke-linecap:butt;stroke-linejoin:miter;stroke-miterlimit:10;stroke-dasharray:none;stroke-opacity:1"
             id="path64"
             inkscape:connector-curvature="0" /></g><g
           id="g66"
           transform="translate(421.8906,309.6187)"><path
             d="m 0,0 -1.365,-1.326 c -0.517,0.521 -1.367,0.527 -1.892,0.014 -0.527,-0.514 -0.532,-1.355 -0.014,-1.877 L -4.77,-4.654 c -2.446,2.458 -3.736,5.613 -3.874,8.8 l -0.002,0.088 2.118,-0.015 0.022,0.23 c 0.052,0.249 0.177,0.488 0.372,0.682 0.529,0.514 1.373,0.508 1.894,-0.013 0.192,-0.197 0.315,-0.438 0.364,-0.687 L -3.858,4.201 -1.939,4.19 -1.936,4.102 C -1.799,2.61 -1.153,1.154 0,0 Z"
             style="fill:none;stroke:#a9ce35;stroke-width:0.27399999;stroke-linecap:butt;stroke-linejoin:miter;stroke-miterlimit:10;stroke-dasharray:none;stroke-opacity:1"
             id="path68"
             inkscape:connector-curvature="0" /></g><g
           id="g70"
           transform="translate(419.9473,313.7622)"><path
             d="M 0,0 -1.918,0.015 C -1.911,0.747 -2.507,1.347 -3.247,1.354 -3.99,1.36 -4.597,0.769 -4.601,0.036 l -2.109,0.02 c 0.027,3.452 1.371,6.588 3.558,8.939 l 0.06,0.06 1.49,-1.494 0.182,0.142 c 0.218,0.144 0.474,0.222 0.754,0.22 C 0.073,7.92 0.672,7.321 0.665,6.589 0.663,6.315 0.574,6.059 0.428,5.846 L 0.28,5.67 1.631,4.315 1.567,4.251 C 0.599,3.099 0.015,1.618 0,0 Z"
             style="fill:none;stroke:#a9ce35;stroke-width:0.27399999;stroke-linecap:butt;stroke-linejoin:miter;stroke-miterlimit:10;stroke-dasharray:none;stroke-opacity:1"
             id="path72"
             inkscape:connector-curvature="0" /></g><g
           id="g74"
           transform="translate(421.5322,318.0688)"><path
             d="m 0,0 -1.337,1.346 c 0.526,0.512 0.531,1.353 0.017,1.874 -0.52,0.523 -1.371,0.531 -1.896,0.019 l -1.477,1.487 c 2.486,2.419 5.672,3.691 8.89,3.824 H 4.285 L 4.269,6.454 4.498,6.427 C 4.75,6.377 4.994,6.254 5.187,6.058 5.705,5.536 5.697,4.694 5.169,4.183 4.975,3.991 4.729,3.87 4.477,3.825 L 4.248,3.806 4.232,1.901 4.141,1.902 C 2.638,1.766 1.167,1.133 0,0 Z"
             style="fill:none;stroke:#a9ce35;stroke-width:0.27399999;stroke-linecap:butt;stroke-linejoin:miter;stroke-miterlimit:10;stroke-dasharray:none;stroke-opacity:1"
             id="path76"
             inkscape:connector-curvature="0" /></g><g
           id="g78"
           transform="translate(432.0527,314.2173)"><path
             d="m 0,0 1.916,-0.017 c -0.007,-0.73 0.592,-1.33 1.333,-1.336 0.743,-0.005 1.352,0.583 1.356,1.317 l 2.11,-0.021 C 6.687,-3.507 5.342,-6.643 3.155,-8.993 l -0.062,-0.061 -1.49,1.496 -0.18,-0.147 c -0.216,-0.141 -0.475,-0.222 -0.754,-0.22 -0.742,0.006 -1.337,0.604 -1.33,1.338 0,0.272 0.086,0.531 0.232,0.74 l 0.15,0.176 -1.35,1.352 0.063,0.067 C -0.597,-3.099 -0.014,-1.62 0,0 Z"
             style="fill:none;stroke:#a9ce35;stroke-width:0.27399999;stroke-linecap:butt;stroke-linejoin:miter;stroke-miterlimit:10;stroke-dasharray:none;stroke-opacity:1"
             id="path80"
             inkscape:connector-curvature="0" /></g><g
           id="g82"
           transform="translate(430.4453,309.9233)"><path
             d="M 0,0 1.342,-1.344 C 0.816,-1.86 0.811,-2.698 1.328,-3.223 1.851,-3.743 2.696,-3.747 3.222,-3.232 l 1.48,-1.484 c -2.479,-2.427 -5.663,-3.708 -8.88,-3.847 l -0.084,-0.004 0.009,2.102 -0.227,0.021 c -0.255,0.049 -0.498,0.172 -0.691,0.367 -0.521,0.522 -0.515,1.364 0.013,1.877 0.194,0.194 0.438,0.311 0.69,0.361 l 0.232,0.021 0.01,1.9 0.089,0.002 C -2.634,-1.777 -1.162,-1.138 0,0 Z"
             style="fill:none;stroke:#a9ce35;stroke-width:0.27399999;stroke-linecap:butt;stroke-linejoin:miter;stroke-miterlimit:10;stroke-dasharray:none;stroke-opacity:1"
             id="path84"
             inkscape:connector-curvature="0" /></g><g
           id="g86"
           transform="translate(434.8086,323.0913)"><path
             d="M 0,0 C -2.369,2.164 -5.534,3.5 -9.021,3.528 L -9.036,1.437 C -8.297,1.43 -7.703,0.828 -7.71,0.094 -7.716,-0.64 -8.318,-1.23 -9.06,-1.224 l -0.012,-1.9 c 1.633,-0.013 3.126,-0.596 4.288,-1.555 l 0.064,-0.059 1.37,1.336 0.175,-0.15 c 0.215,-0.141 0.471,-0.227 0.751,-0.232 0.737,-0.004 1.344,0.587 1.351,1.321 0,0.275 -0.086,0.533 -0.227,0.746 l -0.145,0.178 1.508,1.477 z"
             style="fill:#f08300;fill-opacity:1;fill-rule:nonzero;stroke:none"
             id="path88"
             inkscape:connector-curvature="0" /></g><g
           id="g90"
           transform="translate(434.8086,323.0913)"><path
             d="M 0,0 C -2.369,2.164 -5.534,3.5 -9.021,3.528 L -9.036,1.437 C -8.297,1.43 -7.703,0.828 -7.71,0.094 -7.716,-0.64 -8.318,-1.23 -9.06,-1.224 l -0.012,-1.9 c 1.633,-0.013 3.126,-0.596 4.288,-1.555 l 0.064,-0.059 1.37,1.336 0.175,-0.15 c 0.215,-0.141 0.471,-0.227 0.751,-0.232 0.737,-0.004 1.344,0.587 1.351,1.321 0,0.275 -0.086,0.533 -0.227,0.746 l -0.145,0.178 1.508,1.477 z"
             style="fill:none;stroke:#f08300;stroke-width:0.27399999;stroke-linecap:butt;stroke-linejoin:miter;stroke-miterlimit:10;stroke-dasharray:none;stroke-opacity:1"
             id="path92"
             inkscape:connector-curvature="0" /></g><g
           id="g94"
           transform="translate(430.0762,318.3521)"><path
             d="M 0,0 1.36,1.333 C 1.879,0.812 2.728,0.811 3.253,1.327 3.776,1.842 3.776,2.685 3.257,3.202 l 1.496,1.469 c 2.453,-2.447 3.755,-5.6 3.906,-8.785 L 8.656,-4.202 6.541,-4.194 6.52,-4.427 C 6.467,-4.675 6.345,-4.914 6.149,-5.108 5.622,-5.624 4.775,-5.622 4.258,-5.1 4.061,-4.907 3.939,-4.666 3.89,-4.416 L 3.869,-4.187 1.952,-4.18 1.95,-4.091 C 1.804,-2.603 1.153,-1.149 0,0 Z"
             style="fill:none;stroke:#a9ce35;stroke-width:0.27399999;stroke-linecap:butt;stroke-linejoin:miter;stroke-miterlimit:10;stroke-dasharray:none;stroke-opacity:1"
             id="path96"
             inkscape:connector-curvature="0" /></g><g
           id="g98"
           transform="translate(433.333,321.5542)"><path
             d="m 0,0 c 0.52,-0.518 0.52,-1.36 -0.004,-1.875 -0.525,-0.517 -1.374,-0.515 -1.892,0.006 l -1.361,-1.333 c 1.153,-1.15 1.804,-2.603 1.95,-4.091 l 0.002,-0.089 1.917,-0.007 0.021,-0.229 c 0.05,-0.25 0.171,-0.491 0.368,-0.684 0.518,-0.522 1.364,-0.524 1.892,-0.009 0.195,0.195 0.317,0.434 0.37,0.682 l 0.021,0.233 2.115,-0.008 0.003,0.088 C 5.251,-4.131 3.949,-0.979 1.496,1.469 Z"
             style="fill:#f6ab00;fill-opacity:1;fill-rule:nonzero;stroke:none"
             id="path100"
             inkscape:connector-curvature="0" /></g><g
           id="g102"
           transform="translate(433.333,321.5542)"><path
             d="m 0,0 c 0.52,-0.518 0.52,-1.36 -0.004,-1.875 -0.525,-0.517 -1.374,-0.515 -1.892,0.006 l -1.361,-1.333 c 1.153,-1.15 1.804,-2.603 1.95,-4.091 l 0.002,-0.089 1.917,-0.007 0.021,-0.229 c 0.05,-0.25 0.171,-0.491 0.368,-0.684 0.518,-0.522 1.364,-0.524 1.892,-0.009 0.195,0.195 0.317,0.434 0.37,0.682 l 0.021,0.233 2.115,-0.008 0.003,0.088 C 5.251,-4.131 3.949,-0.979 1.496,1.469 Z"
             style="fill:none;stroke:#f6ab00;stroke-width:0.27399999;stroke-linecap:butt;stroke-linejoin:miter;stroke-miterlimit:10;stroke-dasharray:none;stroke-opacity:1"
             id="path104"
             inkscape:connector-curvature="0" /></g><g
           id="g106"
           transform="translate(435.3018,312.8647)"><path
             d="m 0,0 c -0.741,0.006 -1.34,0.605 -1.333,1.336 l -1.916,0.017 c -0.014,-1.621 -0.597,-3.099 -1.566,-4.252 l -0.063,-0.068 1.35,-1.351 -0.15,-0.176 c -0.146,-0.209 -0.232,-0.469 -0.232,-0.74 -0.007,-0.735 0.588,-1.332 1.33,-1.338 0.279,-0.002 0.538,0.079 0.754,0.219 l 0.18,0.148 1.49,-1.496 0.062,0.06 c 2.187,2.351 3.532,5.487 3.56,8.937 l -2.11,0.02 C 1.352,0.583 0.743,-0.006 0,0"
             style="fill:#ffe200;fill-opacity:1;fill-rule:nonzero;stroke:none"
             id="path108"
             inkscape:connector-curvature="0" /></g><g
           id="g110"
           transform="translate(435.3018,312.8647)"><path
             d="m 0,0 c -0.741,0.006 -1.34,0.605 -1.333,1.336 l -1.916,0.017 c -0.014,-1.621 -0.597,-3.099 -1.566,-4.252 l -0.063,-0.068 1.35,-1.351 -0.15,-0.176 c -0.146,-0.209 -0.232,-0.469 -0.232,-0.74 -0.007,-0.735 0.588,-1.332 1.33,-1.338 0.279,-0.002 0.538,0.079 0.754,0.219 l 0.18,0.148 1.49,-1.496 0.062,0.06 c 2.187,2.351 3.532,5.487 3.56,8.937 l -2.11,0.02 C 1.352,0.583 0.743,-0.006 0,0 Z"
             style="fill:none;stroke:#ffe200;stroke-width:0.27399999;stroke-linecap:butt;stroke-linejoin:miter;stroke-miterlimit:10;stroke-dasharray:none;stroke-opacity:1"
             id="path112"
             inkscape:connector-curvature="0" /></g><g
           id="g114"
           transform="translate(431.7734,306.7007)"><path
             d="M 0,0 C -0.518,0.524 -0.512,1.362 0.014,1.879 L -1.328,3.223 C -2.49,2.085 -3.962,1.445 -5.465,1.307 l -0.089,-0.002 -0.01,-1.901 -0.232,-0.02 c -0.252,-0.05 -0.496,-0.167 -0.69,-0.362 -0.528,-0.512 -0.535,-1.355 -0.013,-1.876 0.193,-0.195 0.436,-0.318 0.69,-0.367 l 0.228,-0.022 -0.009,-2.101 0.084,0.004 c 3.217,0.138 6.401,1.42 8.88,3.847 L 1.894,-0.01 C 1.368,-0.524 0.522,-0.521 0,0"
             style="fill:#6fba2c;fill-opacity:1;fill-rule:nonzero;stroke:none"
             id="path116"
             inkscape:connector-curvature="0" /></g><g
           id="g118"
           transform="translate(431.7734,306.7007)"><path
             d="M 0,0 C -0.518,0.524 -0.512,1.362 0.014,1.879 L -1.328,3.223 C -2.49,2.085 -3.962,1.445 -5.465,1.307 l -0.089,-0.002 -0.01,-1.901 -0.232,-0.02 c -0.252,-0.05 -0.496,-0.167 -0.69,-0.362 -0.528,-0.512 -0.535,-1.355 -0.013,-1.876 0.193,-0.195 0.436,-0.318 0.69,-0.367 l 0.228,-0.022 -0.009,-2.101 0.084,0.004 c 3.217,0.138 6.401,1.42 8.88,3.847 L 1.894,-0.01 C 1.368,-0.524 0.522,-0.521 0,0 Z"
             style="fill:none;stroke:#6fba2c;stroke-width:0.27399999;stroke-linecap:butt;stroke-linejoin:miter;stroke-miterlimit:10;stroke-dasharray:none;stroke-opacity:1"
             id="path120"
             inkscape:connector-curvature="0" /></g><g
           id="g122"
           transform="translate(420.375,319.6079)"><path
             d="M 0,0 C 0.146,0.213 0.235,0.47 0.237,0.743 0.244,1.476 -0.354,2.074 -1.094,2.077 -1.374,2.079 -1.63,2.001 -1.848,1.857 L -2.029,1.715 -3.52,3.209 -3.58,3.149 C -5.767,0.798 -7.11,-2.338 -7.138,-5.79 l 2.11,-0.02 c 0.004,0.733 0.61,1.325 1.353,1.319 0.74,-0.008 1.336,-0.608 1.329,-1.34 l 1.918,-0.015 c 0.015,1.618 0.599,3.099 1.568,4.251 l 0.063,0.065 -1.35,1.354 z"
             style="fill:#7e318e;fill-opacity:1;fill-rule:nonzero;stroke:none"
             id="path124"
             inkscape:connector-curvature="0" /></g><g
           id="g126"
           transform="translate(420.375,319.6079)"><path
             d="M 0,0 C 0.146,0.213 0.235,0.47 0.237,0.743 0.244,1.476 -0.354,2.074 -1.094,2.077 -1.374,2.079 -1.63,2.001 -1.848,1.857 L -2.029,1.715 -3.52,3.209 -3.58,3.149 C -5.767,0.798 -7.11,-2.338 -7.138,-5.79 l 2.11,-0.02 c 0.004,0.733 0.61,1.325 1.353,1.319 0.74,-0.008 1.336,-0.608 1.329,-1.34 l 1.918,-0.015 c 0.015,1.618 0.599,3.099 1.568,4.251 l 0.063,0.065 -1.35,1.354 z"
             style="fill:none;stroke:#7e318e;stroke-width:0.27399999;stroke-linecap:butt;stroke-linejoin:miter;stroke-miterlimit:10;stroke-dasharray:none;stroke-opacity:1"
             id="path128"
             inkscape:connector-curvature="0" /></g><g
           id="g130"><g
             id="g132" /><g
             id="g148"><g
               clip-path="url(#clipPath136)"
               id="g146"
               style="opacity:0.5"><g
                 transform="translate(419.9512,313.8091)"
                 id="g140"><path
                   d="M 0,0 -1.919,0.011 -1.937,0.24 C -1.985,0.489 -2.108,0.73 -2.301,0.928 -2.821,1.448 -3.666,1.454 -4.194,0.94 -4.39,0.746 -4.515,0.508 -4.566,0.259 l -0.023,-0.231 -2.118,0.016 0.003,-0.088 c 0.138,-3.187 1.428,-6.343 3.874,-8.801 l 1.499,1.465 c -0.519,0.523 -0.514,1.363 0.014,1.877 0.524,0.514 1.375,0.508 1.891,-0.014 l 1.365,1.327 c -1.153,1.154 -1.798,2.61 -1.935,4.101 z"
                   style="fill:#7e318e;fill-opacity:1;fill-rule:nonzero;stroke:none"
                   id="path138"
                   inkscape:connector-curvature="0" /></g><g
                 transform="translate(419.9512,313.8091)"
                 id="g144"><path
                   d="M 0,0 -1.919,0.011 -1.937,0.24 C -1.985,0.489 -2.108,0.73 -2.301,0.928 -2.821,1.448 -3.666,1.454 -4.194,0.94 -4.39,0.746 -4.515,0.508 -4.566,0.259 l -0.023,-0.231 -2.118,0.016 0.003,-0.088 c 0.138,-3.187 1.428,-6.343 3.874,-8.801 l 1.499,1.465 c -0.519,0.523 -0.514,1.363 0.014,1.877 0.524,0.514 1.375,0.508 1.891,-0.014 l 1.365,1.327 c -1.153,1.154 -1.798,2.61 -1.935,4.101 z"
                   style="fill:none;stroke:#7e318e;stroke-width:0.27399999;stroke-linecap:butt;stroke-linejoin:miter;stroke-miterlimit:10;stroke-dasharray:none;stroke-opacity:1"
                   id="path142"
                   inkscape:connector-curvature="0" /></g></g></g></g><g
           id="g150"
           transform="translate(426.0303,324.4956)"><path
             d="m 0,0 -0.229,0.027 0.016,2.096 H -0.301 C -3.52,1.99 -6.705,0.718 -9.191,-1.701 l 1.477,-1.487 c 0.525,0.512 1.376,0.504 1.896,-0.019 0.514,-0.521 0.509,-1.361 -0.017,-1.874 l 1.337,-1.346 c 1.167,1.133 2.638,1.766 4.141,1.903 l 0.091,-0.001 0.016,1.904 0.229,0.019 c 0.251,0.045 0.498,0.166 0.692,0.358 0.528,0.512 0.536,1.353 0.017,1.875 C 0.496,-0.173 0.252,-0.05 0,0"
             style="fill:#e60013;fill-opacity:1;fill-rule:nonzero;stroke:none"
             id="path152"
             inkscape:connector-curvature="0" /></g><g
           id="g154"
           transform="translate(426.0303,324.4956)"><path
             d="m 0,0 -0.229,0.027 0.016,2.096 H -0.301 C -3.52,1.99 -6.705,0.718 -9.191,-1.701 l 1.477,-1.487 c 0.525,0.512 1.376,0.504 1.896,-0.019 0.514,-0.521 0.509,-1.361 -0.017,-1.874 l 1.337,-1.346 c 1.167,1.133 2.638,1.766 4.141,1.903 l 0.091,-0.001 0.016,1.904 0.229,0.019 c 0.251,0.045 0.498,0.166 0.692,0.358 0.528,0.512 0.536,1.353 0.017,1.875 C 0.496,-0.173 0.252,-0.05 0,0 Z"
             style="fill:none;stroke:#e60013;stroke-width:0.27399999;stroke-linecap:butt;stroke-linejoin:miter;stroke-miterlimit:10;stroke-dasharray:none;stroke-opacity:1"
             id="path156"
             inkscape:connector-curvature="0" /></g><g
           id="g158"
           transform="translate(421.8975,309.6196)"><path
             d="m 0,0 -1.369,-1.34 -0.178,0.152 c -0.212,0.143 -0.469,0.23 -0.746,0.232 -0.742,0.006 -1.344,-0.587 -1.351,-1.32 0,-0.275 0.081,-0.533 0.22,-0.745 l 0.15,-0.181 -1.511,-1.477 0.064,-0.06 C -2.35,-6.906 0.816,-8.24 4.301,-8.267 l 0.017,2.092 c -0.741,0.006 -1.335,0.605 -1.328,1.344 0.006,0.734 0.607,1.324 1.35,1.318 l 0.014,1.899 c -1.633,0.012 -3.127,0.593 -4.29,1.553 z"
             style="fill:#0075c2;fill-opacity:1;fill-rule:nonzero;stroke:none"
             id="path160"
             inkscape:connector-curvature="0" /></g><g
           id="g162"
           transform="translate(421.8975,309.6196)"><path
             d="m 0,0 -1.369,-1.34 -0.178,0.152 c -0.212,0.143 -0.469,0.23 -0.746,0.232 -0.742,0.006 -1.344,-0.587 -1.351,-1.32 0,-0.275 0.081,-0.533 0.22,-0.745 l 0.15,-0.181 -1.511,-1.477 0.064,-0.06 C -2.35,-6.906 0.816,-8.24 4.301,-8.267 l 0.017,2.092 c -0.741,0.006 -1.335,0.605 -1.328,1.344 0.006,0.734 0.607,1.324 1.35,1.318 l 0.014,1.899 c -1.633,0.012 -3.127,0.593 -4.29,1.553 z"
             style="fill:none;stroke:#0075c2;stroke-width:0.27399999;stroke-linecap:butt;stroke-linejoin:miter;stroke-miterlimit:10;stroke-dasharray:none;stroke-opacity:1"
             id="path164"
             inkscape:connector-curvature="0" /></g><g
           id="g166"
           transform="translate(432.0596,313.936)"><path
             d="m 0,0 c -0.024,-3.346 -2.759,-6.037 -6.109,-6.007 -3.344,0.024 -6.037,2.759 -6.008,6.108 0.027,3.344 2.761,6.037 6.109,6.007 C -2.662,6.083 0.029,3.349 0,0"
             style="fill:#ffffff;fill-opacity:1;fill-rule:nonzero;stroke:none"
             id="path168"
             inkscape:connector-curvature="0" /></g><g
           id="g170"
           transform="translate(432.0596,313.936)"><path
             d="m 0,0 c -0.024,-3.346 -2.759,-6.037 -6.109,-6.007 -3.344,0.024 -6.037,2.759 -6.008,6.108 0.027,3.344 2.761,6.037 6.109,6.007 C -2.662,6.083 0.029,3.349 0,0 Z"
             style="fill:none;stroke:#ffffff;stroke-width:0.27399999;stroke-linecap:butt;stroke-linejoin:miter;stroke-miterlimit:10;stroke-dasharray:none;stroke-opacity:1"
             id="path172"
             inkscape:connector-curvature="0" /></g></g></g><g
       id="g174"><g
         id="g176"
         clip-path="url(#clipPath180)"><g
           id="g182"
           transform="translate(438.5469,313.8833)"><path
             d="m 0,0 c -0.056,-6.929 -5.715,-12.5 -12.648,-12.441 -6.929,0.053 -12.498,5.715 -12.443,12.645 0.057,6.931 5.717,12.501 12.649,12.444 C -5.514,12.595 0.056,6.931 0,0 Z"
             style="fill:none;stroke:#ffffff;stroke-width:0.27399999;stroke-linecap:butt;stroke-linejoin:miter;stroke-miterlimit:10;stroke-dasharray:none;stroke-opacity:1"
             id="path184"
             inkscape:connector-curvature="0" /></g></g></g></g></svg>